STARTFONT 2.1
FONT -Linotype-New Century Schoolbook-Medium-I-Normal--14-140-72-72-P-79-ISO8859-1
SIZE 14 72 72
FONTBOUNDINGBOX 16 20 -2 -4

STARTPROPERTIES 22
FONTNAME_REGISTRY "-"
FOUNDRY "Linotype"
FAMILY_NAME "New Century Schoolbook"
WEIGHT_NAME "Medium"
SLANT "I"
SETWIDTH_NAME "Normal"
ADD_STYLE_NAME ""
PIXEL_SIZE 14
POINT_SIZE 140
RESOLUTION_X 72
RESOLUTION_Y 72
SPACING "P"
CHARSET_REGISTRY "ISO8859"
CHARSET_ENCODING "1"
FULL_NAME "NewCenturySchlbk-Italic"
AVERAGE_WIDTH 79
WEIGHT 10
X_HEIGHT 7
QUAD_WIDTH 8
DEFAULT_CHAR 32
FONT_DESCENT 3
FONT_ASCENT 13
ENDPROPERTIES

CHARS 190

STARTCHAR space
ENCODING 32
SWIDTH 278 0
DWIDTH 4 0
BBX 1 1 0 0
BITMAP
00
ENDCHAR

STARTCHAR exclam
ENCODING 33
SWIDTH 333 0
DWIDTH 5 0
BBX 4 11 0 0
BITMAP
30
30
30
20
20
40
40
40
00
C0
C0
ENDCHAR

STARTCHAR quotedbl
ENCODING 34
SWIDTH 400 0
DWIDTH 6 0
BBX 4 3 1 8
BITMAP
50
90
A0
ENDCHAR

STARTCHAR numbersign
ENCODING 35
SWIDTH 556 0
DWIDTH 8 0
BBX 7 10 1 0
BITMAP
24
24
24
FE
48
48
FC
48
48
48
ENDCHAR

STARTCHAR dollar
ENCODING 36
SWIDTH 556 0
DWIDTH 7 0
BBX 7 14 0 -2
BITMAP
04
1C
26
4A
4A
4A
28
98
94
94
A4
78
20
20
ENDCHAR

STARTCHAR percent
ENCODING 37
SWIDTH 833 0
DWIDTH 12 0
BBX 10 11 1 0
BITMAP
3080
4F00
8A00
8A00
9400
6580
0A40
0A40
1240
1240
2180
ENDCHAR

STARTCHAR ampersand
ENCODING 38
SWIDTH 852 0
DWIDTH 12 0
BBX 10 11 0 0
BITMAP
0E00
0900
1900
1E00
1800
39C0
5C80
CF00
CE40
C7C0
7B80
ENDCHAR

STARTCHAR quoteright
ENCODING 39
SWIDTH 204 0
DWIDTH 3 0
BBX 3 4 1 7
BITMAP
60
60
40
C0
ENDCHAR

STARTCHAR parenleft
ENCODING 40
SWIDTH 333 0
DWIDTH 5 0
BBX 5 13 1 -2
BITMAP
08
30
20
40
40
C0
80
80
80
80
80
80
40
ENDCHAR

STARTCHAR parenright
ENCODING 41
SWIDTH 333 0
DWIDTH 5 0
BBX 5 13 0 -2
BITMAP
10
08
08
08
08
08
08
18
10
10
20
60
80
ENDCHAR

STARTCHAR asterisk
ENCODING 42
SWIDTH 500 0
DWIDTH 7 0
BBX 6 6 0 5
BITMAP
A4
68
30
30
68
A4
ENDCHAR

STARTCHAR plus
ENCODING 43
SWIDTH 606 0
DWIDTH 8 0
BBX 7 7 1 0
BITMAP
10
10
10
FE
10
10
10
ENDCHAR

STARTCHAR comma
ENCODING 44
SWIDTH 278 0
DWIDTH 4 0
BBX 3 4 0 -2
BITMAP
60
60
40
C0
ENDCHAR

STARTCHAR minus
ENCODING 45
SWIDTH 606 0
DWIDTH 8 0
BBX 7 1 1 3
BITMAP
FE
ENDCHAR

STARTCHAR period
ENCODING 46
SWIDTH 278 0
DWIDTH 4 0
BBX 2 2 0 0
BITMAP
C0
C0
ENDCHAR

STARTCHAR slash
ENCODING 47
SWIDTH 606 0
DWIDTH 8 0
BBX 5 13 2 -2
BITMAP
18
10
10
10
20
20
20
60
40
40
40
80
80
ENDCHAR

STARTCHAR zero
ENCODING 48
SWIDTH 556 0
DWIDTH 8 0
BBX 7 11 0 0
BITMAP
1C
26
62
42
C2
82
86
84
8C
C8
70
ENDCHAR

STARTCHAR one
ENCODING 49
SWIDTH 556 0
DWIDTH 8 0
BBX 6 11 1 0
BITMAP
0C
38
08
08
18
10
10
10
30
20
F8
ENDCHAR

STARTCHAR two
ENCODING 50
SWIDTH 556 0
DWIDTH 8 0
BBX 8 11 0 0
BITMAP
1E
23
23
33
06
0C
18
32
42
FE
FC
ENDCHAR

STARTCHAR three
ENCODING 51
SWIDTH 556 0
DWIDTH 8 0
BBX 7 11 0 0
BITMAP
1C
26
22
02
04
18
04
C4
C4
8C
78
ENDCHAR

STARTCHAR four
ENCODING 52
SWIDTH 556 0
DWIDTH 8 0
BBX 8 11 0 0
BITMAP
03
06
0E
16
26
6C
CC
FE
08
08
3C
ENDCHAR

STARTCHAR five
ENCODING 53
SWIDTH 556 0
DWIDTH 8 0
BBX 8 11 0 0
BITMAP
13
3E
3C
20
3C
46
06
C6
C6
8C
78
ENDCHAR

STARTCHAR six
ENCODING 54
SWIDTH 556 0
DWIDTH 8 0
BBX 7 11 1 0
BITMAP
1C
32
66
40
F8
C4
C4
84
84
CC
78
ENDCHAR

STARTCHAR seven
ENCODING 55
SWIDTH 556 0
DWIDTH 8 0
BBX 7 11 1 0
BITMAP
7E
7C
C4
88
18
10
30
20
60
60
40
ENDCHAR

STARTCHAR eight
ENCODING 56
SWIDTH 556 0
DWIDTH 8 0
BBX 7 11 0 0
BITMAP
1C
22
62
22
3C
6C
C6
86
86
C4
78
ENDCHAR

STARTCHAR nine
ENCODING 57
SWIDTH 556 0
DWIDTH 8 0
BBX 7 11 0 0
BITMAP
1C
26
42
42
42
66
3E
04
CC
88
70
ENDCHAR

STARTCHAR colon
ENCODING 58
SWIDTH 278 0
DWIDTH 4 0
BBX 3 7 1 0
BITMAP
60
60
00
00
00
C0
C0
ENDCHAR

STARTCHAR semicolon
ENCODING 59
SWIDTH 278 0
DWIDTH 4 0
BBX 4 9 0 -2
BITMAP
30
30
00
00
00
40
60
40
C0
ENDCHAR

STARTCHAR less
ENCODING 60
SWIDTH 606 0
DWIDTH 8 0
BBX 7 7 0 0
BITMAP
06
18
60
80
60
18
06
ENDCHAR

STARTCHAR equal
ENCODING 61
SWIDTH 606 0
DWIDTH 8 0
BBX 7 4 1 2
BITMAP
FE
00
00
FE
ENDCHAR

STARTCHAR greater
ENCODING 62
SWIDTH 606 0
DWIDTH 8 0
BBX 7 7 1 0
BITMAP
C0
30
0C
02
0C
30
C0
ENDCHAR

STARTCHAR question
ENCODING 63
SWIDTH 444 0
DWIDTH 6 0
BBX 4 11 1 0
BITMAP
60
90
90
30
60
C0
A0
C0
00
C0
C0
ENDCHAR

STARTCHAR at
ENCODING 64
SWIDTH 747 0
DWIDTH 10 0
BBX 10 11 0 0
BITMAP
1F00
2080
4040
8E40
9240
B240
A640
A480
9F40
4080
3F00
ENDCHAR

STARTCHAR A
ENCODING 65
SWIDTH 704 0
DWIDTH 10 0
BBX 11 11 0 0
BITMAP
0200
0300
0700
0D00
0900
1900
1F80
3180
2180
6180
F3E0
ENDCHAR

STARTCHAR B
ENCODING 66
SWIDTH 722 0
DWIDTH 10 0
BBX 10 11 0 0
BITMAP
3F00
0880
1840
1840
10C0
1F80
3100
3080
2080
6180
FF00
ENDCHAR

STARTCHAR C
ENCODING 67
SWIDTH 722 0
DWIDTH 10 0
BBX 9 11 1 0
BITMAP
0E80
3180
6080
4080
C080
C000
C000
C100
C100
6200
3C00
ENDCHAR

STARTCHAR D
ENCODING 68
SWIDTH 778 0
DWIDTH 11 0
BBX 11 11 0 0
BITMAP
3F80
08C0
1860
1860
1060
1060
3060
30C0
20C0
6180
FE00
ENDCHAR

STARTCHAR E
ENCODING 69
SWIDTH 722 0
DWIDTH 10 0
BBX 10 11 0 0
BITMAP
3FC0
0840
0840
1940
1300
1E00
3200
32C0
2080
6180
FF80
ENDCHAR

STARTCHAR F
ENCODING 70
SWIDTH 667 0
DWIDTH 9 0
BBX 10 11 0 0
BITMAP
3FC0
0840
1840
1940
1B00
1E00
3200
3200
2000
6000
F800
ENDCHAR

STARTCHAR G
ENCODING 71
SWIDTH 778 0
DWIDTH 11 0
BBX 10 11 1 0
BITMAP
0F40
31C0
6080
6080
C080
C000
C3C0
C180
C180
6300
3D00
ENDCHAR

STARTCHAR H
ENCODING 72
SWIDTH 833 0
DWIDTH 12 0
BBX 13 11 0 0
BITMAP
3EF8
0820
1860
1860
1040
3FC0
30C0
30C0
2080
6080
FBE0
ENDCHAR

STARTCHAR I
ENCODING 73
SWIDTH 407 0
DWIDTH 6 0
BBX 6 11 0 0
BITMAP
3C
18
18
10
30
30
30
20
60
60
F0
ENDCHAR

STARTCHAR J
ENCODING 74
SWIDTH 611 0
DWIDTH 9 0
BBX 9 11 0 0
BITMAP
0780
0300
0300
0200
0600
0600
0600
6400
EC00
8C00
7800
ENDCHAR

STARTCHAR K
ENCODING 75
SWIDTH 741 0
DWIDTH 10 0
BBX 12 11 0 0
BITMAP
3EF0
0840
1880
1B00
1600
3E00
3B00
3300
2180
6180
FBC0
ENDCHAR

STARTCHAR L
ENCODING 76
SWIDTH 667 0
DWIDTH 9 0
BBX 9 11 0 0
BITMAP
3E00
1800
1800
1000
3000
3000
3000
2080
6080
6180
FF00
ENDCHAR

STARTCHAR M
ENCODING 77
SWIDTH 944 0
DWIDTH 13 0
BBX 14 11 0 0
BITMAP
381C
1838
1878
1C50
3CB0
2CB0
2530
2720
2660
4460
E4F0
ENDCHAR

STARTCHAR N
ENCODING 78
SWIDTH 815 0
DWIDTH 13 0
BBX 13 11 1 0
BITMAP
3C78
1C30
1C20
1620
1660
1340
2340
21C0
21C0
6080
F080
ENDCHAR

STARTCHAR O
ENCODING 79
SWIDTH 778 0
DWIDTH 11 0
BBX 10 11 1 0
BITMAP
0F00
3180
6080
60C0
C0C0
C0C0
C080
C180
C100
6200
3C00
ENDCHAR

STARTCHAR P
ENCODING 80
SWIDTH 667 0
DWIDTH 9 0
BBX 10 11 0 0
BITMAP
3F80
0CC0
18C0
18C0
1980
3F00
3000
3000
6000
6000
F800
ENDCHAR

STARTCHAR Q
ENCODING 81
SWIDTH 778 0
DWIDTH 11 0
BBX 10 14 1 -3
BITMAP
0F00
3180
6080
60C0
C0C0
C0C0
C080
DD80
E700
6600
3C00
0480
0500
0700
ENDCHAR

STARTCHAR R
ENCODING 82
SWIDTH 741 0
DWIDTH 10 0
BBX 10 11 0 0
BITMAP
3F80
08C0
1840
1840
10C0
3F80
3100
3100
6100
6140
F980
ENDCHAR

STARTCHAR S
ENCODING 83
SWIDTH 667 0
DWIDTH 9 0
BBX 9 11 0 0
BITMAP
1E80
3180
2100
2100
3800
1E00
0F00
4300
4100
E200
BC00
ENDCHAR

STARTCHAR T
ENCODING 84
SWIDTH 685 0
DWIDTH 10 0
BBX 10 11 1 0
BITMAP
7FC0
4C40
8880
8880
0800
1800
1800
1000
1000
3000
7800
ENDCHAR

STARTCHAR U
ENCODING 85
SWIDTH 815 0
DWIDTH 11 0
BBX 11 11 1 0
BITMAP
F9E0
20C0
6080
6080
6080
4100
C100
C100
C300
C200
7C00
ENDCHAR

STARTCHAR V
ENCODING 86
SWIDTH 704 0
DWIDTH 10 0
BBX 10 11 1 0
BITMAP
F3C0
6080
2180
2100
2300
3200
3400
3400
1800
1800
1000
ENDCHAR

STARTCHAR W
ENCODING 87
SWIDTH 926 0
DWIDTH 13 0
BBX 13 11 1 0
BITMAP
F738
6210
6220
6720
2560
2D40
2940
2980
3180
3180
2100
ENDCHAR

STARTCHAR X
ENCODING 88
SWIDTH 704 0
DWIDTH 10 0
BBX 12 11 0 0
BITMAP
3EF0
1840
0C80
0D00
0600
0600
0F00
1B00
3180
6180
F3C0
ENDCHAR

STARTCHAR Y
ENCODING 89
SWIDTH 685 0
DWIDTH 10 0
BBX 10 11 0 0
BITMAP
F3C0
6180
6100
3200
3600
3400
1800
1800
3000
3000
7C00
ENDCHAR

STARTCHAR Z
ENCODING 90
SWIDTH 667 0
DWIDTH 9 0
BBX 10 11 0 0
BITMAP
3FC0
3180
2300
2600
0C00
0C00
1800
3080
6180
E300
FF00
ENDCHAR

STARTCHAR bracketleft
ENCODING 91
SWIDTH 333 0
DWIDTH 5 0
BBX 6 12 0 -1
BITMAP
1C
30
30
30
60
60
60
60
C0
C0
C0
F0
ENDCHAR

STARTCHAR backslash
ENCODING 92
SWIDTH 606 0
DWIDTH 8 0
BBX 6 11 1 0
BITMAP
80
40
40
20
20
30
10
18
08
0C
04
ENDCHAR

STARTCHAR bracketright
ENCODING 93
SWIDTH 333 0
DWIDTH 5 0
BBX 6 12 0 -1
BITMAP
1C
0C
0C
0C
18
18
18
18
30
30
30
F0
ENDCHAR

STARTCHAR asciicircum
ENCODING 94
SWIDTH 606 0
DWIDTH 8 0
BBX 7 5 1 6
BITMAP
10
38
6C
44
C6
ENDCHAR

STARTCHAR underscore
ENCODING 95
SWIDTH 500 0
DWIDTH 7 0
BBX 7 1 0 -2
BITMAP
FE
ENDCHAR

STARTCHAR quoteleft
ENCODING 96
SWIDTH 204 0
DWIDTH 3 0
BBX 3 4 1 7
BITMAP
60
80
C0
C0
ENDCHAR

STARTCHAR a
ENCODING 97
SWIDTH 574 0
DWIDTH 8 0
BBX 8 7 0 0
BITMAP
3A
46
84
8C
89
9A
74
ENDCHAR

STARTCHAR b
ENCODING 98
SWIDTH 556 0
DWIDTH 8 0
BBX 6 11 0 0
BITMAP
70
10
30
20
38
6C
44
84
8C
88
70
ENDCHAR

STARTCHAR c
ENCODING 99
SWIDTH 444 0
DWIDTH 6 0
BBX 6 7 0 0
BITMAP
38
6C
C8
80
80
C8
70
ENDCHAR

STARTCHAR d
ENCODING 100
SWIDTH 611 0
DWIDTH 9 0
BBX 8 11 0 0
BITMAP
07
01
03
02
3A
66
C4
CC
8D
DA
7E
ENDCHAR

STARTCHAR e
ENCODING 101
SWIDTH 444 0
DWIDTH 6 0
BBX 6 7 0 0
BITMAP
38
4C
C8
F0
80
C8
70
ENDCHAR

STARTCHAR f
ENCODING 102
SWIDTH 333 0
DWIDTH 5 0
BBX 7 14 0 -3
BITMAP
0E
0A
18
10
7C
10
30
20
20
20
60
40
40
C0
ENDCHAR

STARTCHAR g
ENCODING 103
SWIDTH 537 0
DWIDTH 8 0
BBX 8 11 0 -3
BITMAP
03
1F
32
22
22
7C
40
7C
86
84
78
ENDCHAR

STARTCHAR h
ENCODING 104
SWIDTH 611 0
DWIDTH 9 0
BBX 8 11 0 0
BITMAP
78
10
10
10
3C
34
24
64
4D
4A
CC
ENDCHAR

STARTCHAR i
ENCODING 105
SWIDTH 333 0
DWIDTH 4 0
BBX 4 11 0 0
BITMAP
20
20
00
00
E0
20
40
40
90
A0
C0
ENDCHAR

STARTCHAR j
ENCODING 106
SWIDTH 315 0
DWIDTH 6 0
BBX 7 14 -1 -3
BITMAP
02
02
00
00
1E
04
04
04
0C
08
08
18
B0
E0
ENDCHAR

STARTCHAR k
ENCODING 107
SWIDTH 556 0
DWIDTH 8 0
BBX 7 11 0 0
BITMAP
78
10
10
10
3C
36
2C
70
6A
4E
CC
ENDCHAR

STARTCHAR l
ENCODING 108
SWIDTH 333 0
DWIDTH 5 0
BBX 4 11 0 0
BITMAP
70
30
20
20
60
40
40
C0
90
A0
C0
ENDCHAR

STARTCHAR m
ENCODING 109
SWIDTH 889 0
DWIDTH 12 0
BBX 12 7 0 0
BITMAP
ECC0
3540
2640
6640
64D0
CCA0
CCC0
ENDCHAR

STARTCHAR n
ENCODING 110
SWIDTH 611 0
DWIDTH 9 0
BBX 8 7 0 0
BITMAP
EC
34
24
64
4D
4A
CC
ENDCHAR

STARTCHAR o
ENCODING 111
SWIDTH 500 0
DWIDTH 7 0
BBX 6 7 0 0
BITMAP
38
64
C4
84
84
88
70
ENDCHAR

STARTCHAR p
ENCODING 112
SWIDTH 574 0
DWIDTH 8 0
BBX 8 10 0 -3
BITMAP
36
19
11
11
31
32
2C
60
40
E0
ENDCHAR

STARTCHAR q
ENCODING 113
SWIDTH 556 0
DWIDTH 8 0
BBX 7 10 0 -3
BITMAP
3A
66
44
84
8C
D8
68
08
18
3C
ENDCHAR

STARTCHAR r
ENCODING 114
SWIDTH 444 0
DWIDTH 6 0
BBX 6 7 0 0
BITMAP
EC
34
20
60
40
40
C0
ENDCHAR

STARTCHAR s
ENCODING 115
SWIDTH 444 0
DWIDTH 6 0
BBX 5 7 0 0
BITMAP
38
48
60
30
18
88
F0
ENDCHAR

STARTCHAR t
ENCODING 116
SWIDTH 352 0
DWIDTH 5 0
BBX 4 9 0 0
BITMAP
20
20
F0
40
40
80
90
A0
C0
ENDCHAR

STARTCHAR u
ENCODING 117
SWIDTH 611 0
DWIDTH 9 0
BBX 7 7 1 0
BITMAP
E6
44
4C
48
8A
9A
EC
ENDCHAR

STARTCHAR v
ENCODING 118
SWIDTH 519 0
DWIDTH 7 0
BBX 6 7 0 0
BITMAP
EC
44
84
84
88
50
60
ENDCHAR

STARTCHAR w
ENCODING 119
SWIDTH 778 0
DWIDTH 11 0
BBX 9 7 0 0
BITMAP
E580
4480
4C80
8880
8900
9900
E600
ENDCHAR

STARTCHAR x
ENCODING 120
SWIDTH 500 0
DWIDTH 7 0
BBX 7 7 0 0
BITMAP
36
5A
48
18
12
B2
CC
ENDCHAR

STARTCHAR y
ENCODING 121
SWIDTH 500 0
DWIDTH 7 0
BBX 7 10 0 -3
BITMAP
32
72
52
12
1C
0C
08
18
90
E0
ENDCHAR

STARTCHAR z
ENCODING 122
SWIDTH 463 0
DWIDTH 6 0
BBX 6 7 0 0
BITMAP
74
8C
18
30
64
C4
B8
ENDCHAR

STARTCHAR braceleft
ENCODING 123
SWIDTH 333 0
DWIDTH 5 0
BBX 5 12 1 -1
BITMAP
18
20
20
20
60
C0
40
40
80
80
80
40
ENDCHAR

STARTCHAR bar
ENCODING 124
SWIDTH 606 0
DWIDTH 8 0
BBX 1 11 4 0
BITMAP
80
80
80
80
80
80
80
80
80
80
80
ENDCHAR

STARTCHAR braceright
ENCODING 125
SWIDTH 333 0
DWIDTH 5 0
BBX 5 12 0 -1
BITMAP
10
08
08
10
10
10
18
20
20
20
20
C0
ENDCHAR

STARTCHAR asciitilde
ENCODING 126
SWIDTH 606 0
DWIDTH 8 0
BBX 7 3 1 2
BITMAP
62
FE
8C
ENDCHAR

STARTCHAR exclamdown
ENCODING 161
SWIDTH 333 0
DWIDTH 5 0
BBX 4 11 0 -3
BITMAP
30
30
00
20
20
20
40
40
C0
C0
C0
ENDCHAR

STARTCHAR cent
ENCODING 162
SWIDTH 556 0
DWIDTH 8 0
BBX 6 11 1 -2
BITMAP
04
04
38
6C
C8
90
90
A8
70
40
40
ENDCHAR

STARTCHAR sterling
ENCODING 163
SWIDTH 556 0
DWIDTH 8 0
BBX 8 11 0 0
BITMAP
0E
19
13
10
10
7C
10
10
E2
BE
DC
ENDCHAR

STARTCHAR currency
ENCODING 164
SWIDTH 556 0
DWIDTH 8 0
BBX 7 8 1 1
BITMAP
BA
7C
C6
82
82
C6
7C
BA
ENDCHAR

STARTCHAR yen
ENCODING 165
SWIDTH 556 0
DWIDTH 8 0
BBX 8 11 1 0
BITMAP
F7
62
24
28
38
FC
30
FC
20
20
F8
ENDCHAR

STARTCHAR brokenbar
ENCODING 166
SWIDTH 606 0
DWIDTH 8 0
BBX 1 11 4 0
BITMAP
80
80
80
80
80
00
80
80
80
80
80
ENDCHAR

STARTCHAR section
ENCODING 167
SWIDTH 500 0
DWIDTH 7 0
BBX 7 14 0 -3
BITMAP
1C
32
36
10
38
4C
44
44
64
38
10
D8
98
70
ENDCHAR

STARTCHAR dieresis
ENCODING 168
SWIDTH 333 0
DWIDTH 5 0
BBX 5 2 0 8
BITMAP
D8
D8
ENDCHAR

STARTCHAR copyright
ENCODING 169
SWIDTH 747 0
DWIDTH 10 0
BBX 10 10 0 0
BITMAP
3F00
4080
9E40
B240
B040
B040
B240
9C40
4080
3F00
ENDCHAR

STARTCHAR ordfeminine
ENCODING 170
SWIDTH 422 0
DWIDTH 6 0
BBX 5 6 1 5
BITMAP
70
90
90
E8
00
F0
ENDCHAR

STARTCHAR guillemotleft
ENCODING 171
SWIDTH 426 0
DWIDTH 6 0
BBX 6 4 0 1
BITMAP
24
48
90
48
ENDCHAR

STARTCHAR logicalnot
ENCODING 172
SWIDTH 606 0
DWIDTH 8 0
BBX 7 4 1 0
BITMAP
FE
02
02
02
ENDCHAR

STARTCHAR hyphen
ENCODING 173
SWIDTH 333 0
DWIDTH 5 0
BBX 3 1 0 3
BITMAP
E0
ENDCHAR

STARTCHAR registered
ENCODING 174
SWIDTH 747 0
DWIDTH 10 0
BBX 10 10 0 0
BITMAP
3F00
4080
9E40
9240
9C40
9240
9240
9240
4080
3F00
ENDCHAR

STARTCHAR macron
ENCODING 175
SWIDTH 333 0
DWIDTH 5 0
BBX 4 1 1 8
BITMAP
F0
ENDCHAR

STARTCHAR degree
ENCODING 176
SWIDTH 400 0
DWIDTH 8 0
BBX 5 4 2 6
BITMAP
70
88
88
70
ENDCHAR

STARTCHAR plusminus
ENCODING 177
SWIDTH 606 0
DWIDTH 8 0
BBX 7 9 1 0
BITMAP
10
10
10
FE
10
10
10
00
FE
ENDCHAR

STARTCHAR twosuperior
ENCODING 178
SWIDTH 333 0
DWIDTH 5 0
BBX 4 6 -1 5
BITMAP
30
50
50
20
50
F0
ENDCHAR

STARTCHAR threesuperior
ENCODING 179
SWIDTH 333 0
DWIDTH 5 0
BBX 4 6 -1 5
BITMAP
70
50
20
90
90
E0
ENDCHAR

STARTCHAR acute
ENCODING 180
SWIDTH 333 0
DWIDTH 5 0
BBX 3 2 2 8
BITMAP
20
C0
ENDCHAR

STARTCHAR mu
ENCODING 181
SWIDTH 611 0
DWIDTH 8 0
BBX 8 10 0 -3
BITMAP
88
88
88
88
89
89
FE
80
80
C0
ENDCHAR

STARTCHAR paragraph
ENCODING 182
SWIDTH 650 0
DWIDTH 9 0
BBX 8 14 1 -3
BITMAP
3F
6A
D4
D4
D4
74
28
28
28
28
28
50
50
F8
ENDCHAR

STARTCHAR periodcentered
ENCODING 183
SWIDTH 278 0
DWIDTH 7 0
BBX 2 2 3 4
BITMAP
C0
C0
ENDCHAR

STARTCHAR cedilla
ENCODING 184
SWIDTH 333 0
DWIDTH 5 0
BBX 3 4 0 -3
BITMAP
40
40
20
C0
ENDCHAR

STARTCHAR onesuperior
ENCODING 185
SWIDTH 333 0
DWIDTH 5 0
BBX 3 6 -2 5
BITMAP
20
60
20
40
40
E0
ENDCHAR

STARTCHAR ordmasculine
ENCODING 186
SWIDTH 372 0
DWIDTH 5 0
BBX 4 6 1 5
BITMAP
70
90
90
E0
00
F0
ENDCHAR

STARTCHAR guillemotright
ENCODING 187
SWIDTH 426 0
DWIDTH 6 0
BBX 6 4 0 1
BITMAP
48
24
48
90
ENDCHAR

STARTCHAR onequarter
ENCODING 188
SWIDTH 834 0
DWIDTH 12 0
BBX 10 11 1 0
BITMAP
2080
6180
2100
4300
4200
E640
04C0
0540
0940
0BC0
1040
ENDCHAR

STARTCHAR onehalf
ENCODING 189
SWIDTH 834 0
DWIDTH 12 0
BBX 10 11 1 0
BITMAP
2080
6180
2100
4300
4200
E6C0
0540
0540
0880
0940
13C0
ENDCHAR

STARTCHAR threequarters
ENCODING 190
SWIDTH 834 0
DWIDTH 12 0
BBX 11 11 2 0
BITMAP
7040
50C0
2080
9180
9100
E320
0260
02A0
04A0
05E0
0820
ENDCHAR

STARTCHAR questiondown
ENCODING 191
SWIDTH 444 0
DWIDTH 6 0
BBX 4 11 0 -3
BITMAP
10
10
00
30
50
30
70
E0
D0
90
60
ENDCHAR

STARTCHAR Agrave
ENCODING 192
SWIDTH 704 0
DWIDTH 10 0
BBX 11 14 0 0
BITMAP
0400
0300
0000
0200
0300
0700
0D00
0900
1900
1F80
3180
2180
6180
F3E0
ENDCHAR

STARTCHAR Aacute
ENCODING 193
SWIDTH 704 0
DWIDTH 10 0
BBX 11 14 0 0
BITMAP
0080
0300
0000
0200
0300
0700
0D00
0900
1900
1F80
3180
2180
6180
F3E0
ENDCHAR

STARTCHAR Acircumflex
ENCODING 194
SWIDTH 704 0
DWIDTH 10 0
BBX 11 14 0 0
BITMAP
0300
0480
0000
0200
0300
0700
0D00
0900
1900
1F80
3180
2180
6180
F3E0
ENDCHAR

STARTCHAR Atilde
ENCODING 195
SWIDTH 704 0
DWIDTH 10 0
BBX 11 14 0 0
BITMAP
0740
0B80
0000
0200
0300
0700
0D00
0900
1900
1F80
3180
2180
6180
F3E0
ENDCHAR

STARTCHAR Adieresis
ENCODING 196
SWIDTH 704 0
DWIDTH 10 0
BBX 11 14 0 0
BITMAP
06C0
06C0
0000
0200
0300
0700
0D00
0900
1900
1F80
3180
2180
6180
F3E0
ENDCHAR

STARTCHAR Aring
ENCODING 197
SWIDTH 704 0
DWIDTH 10 0
BBX 11 16 0 0
BITMAP
0100
0280
0280
0100
0000
0200
0300
0700
0D00
0900
1900
1F80
3180
2180
6180
F3E0
ENDCHAR

STARTCHAR AE
ENCODING 198
SWIDTH 870 0
DWIDTH 12 0
BBX 13 11 0 0
BITMAP
07F8
0388
0788
05A8
09A0
19E0
1F40
2348
6710
4630
EFF0
ENDCHAR

STARTCHAR Ccedilla
ENCODING 199
SWIDTH 722 0
DWIDTH 10 0
BBX 9 15 1 -4
BITMAP
0E80
3180
6080
6080
C080
C000
C000
C100
C100
6200
3C00
1000
1000
0800
3000
ENDCHAR

STARTCHAR Egrave
ENCODING 200
SWIDTH 722 0
DWIDTH 10 0
BBX 10 14 0 0
BITMAP
0400
0300
0000
3FC0
0840
1840
1940
1300
1E00
3200
32C0
2080
6180
FF80
ENDCHAR

STARTCHAR Eacute
ENCODING 201
SWIDTH 722 0
DWIDTH 10 0
BBX 10 14 0 0
BITMAP
0080
0300
0000
3FC0
0840
1840
1940
1300
1E00
3200
32C0
2080
6180
FF80
ENDCHAR

STARTCHAR Ecircumflex
ENCODING 202
SWIDTH 722 0
DWIDTH 10 0
BBX 10 14 0 0
BITMAP
0600
0900
0000
3FC0
0840
1840
1940
1300
1E00
3200
32C0
2080
6180
FF80
ENDCHAR

STARTCHAR Edieresis
ENCODING 203
SWIDTH 722 0
DWIDTH 10 0
BBX 10 14 0 0
BITMAP
0D80
0D80
0000
3FC0
0840
1840
1940
1300
1E00
3200
32C0
2080
6180
FF80
ENDCHAR

STARTCHAR Igrave
ENCODING 204
SWIDTH 407 0
DWIDTH 6 0
BBX 6 14 0 0
BITMAP
10
0C
00
3C
18
18
10
30
30
30
20
60
60
F0
ENDCHAR

STARTCHAR Iacute
ENCODING 205
SWIDTH 407 0
DWIDTH 6 0
BBX 6 14 0 0
BITMAP
04
18
00
3C
18
18
10
30
30
30
20
60
60
F0
ENDCHAR

STARTCHAR Icircumflex
ENCODING 206
SWIDTH 407 0
DWIDTH 6 0
BBX 6 14 0 0
BITMAP
18
24
00
3C
18
18
10
30
30
30
20
60
60
F0
ENDCHAR

STARTCHAR Idieresis
ENCODING 207
SWIDTH 407 0
DWIDTH 6 0
BBX 7 14 0 0
BITMAP
36
36
00
3C
18
18
10
30
30
30
20
60
60
F0
ENDCHAR

STARTCHAR Eth
ENCODING 208
SWIDTH 778 0
DWIDTH 11 0
BBX 11 11 0 0
BITMAP
3F80
18C0
1860
1060
7E60
3060
3060
20C0
60C0
6180
FE00
ENDCHAR

STARTCHAR Ntilde
ENCODING 209
SWIDTH 815 0
DWIDTH 13 0
BBX 13 14 1 0
BITMAP
0740
0B80
0000
3C78
1C30
1C20
1620
1660
1340
2340
21C0
21C0
6080
F080
ENDCHAR

STARTCHAR Ograve
ENCODING 210
SWIDTH 778 0
DWIDTH 11 0
BBX 10 14 1 0
BITMAP
0800
0600
0000
0F00
3180
6080
60C0
C0C0
C0C0
C080
C180
C100
6200
3C00
ENDCHAR

STARTCHAR Oacute
ENCODING 211
SWIDTH 778 0
DWIDTH 11 0
BBX 10 14 1 0
BITMAP
0100
0600
0000
0F00
3180
6080
60C0
C0C0
C0C0
C080
C180
C100
6200
3C00
ENDCHAR

STARTCHAR Ocircumflex
ENCODING 212
SWIDTH 778 0
DWIDTH 11 0
BBX 10 14 1 0
BITMAP
0600
0900
0000
0F00
3180
6080
60C0
C0C0
C0C0
C080
C180
C100
6200
3C00
ENDCHAR

STARTCHAR Otilde
ENCODING 213
SWIDTH 778 0
DWIDTH 11 0
BBX 10 14 1 0
BITMAP
0E80
1700
0000
0F00
3180
6080
60C0
C0C0
C0C0
C080
C180
C100
6200
3C00
ENDCHAR

STARTCHAR Odieresis
ENCODING 214
SWIDTH 778 0
DWIDTH 11 0
BBX 10 14 1 0
BITMAP
0D80
0D80
0000
0F00
3180
6080
60C0
C0C0
C0C0
C080
C180
C100
6200
3C00
ENDCHAR

STARTCHAR multiply
ENCODING 215
SWIDTH 606 0
DWIDTH 8 0
BBX 6 6 2 1
BITMAP
84
48
30
30
48
84
ENDCHAR

STARTCHAR Oslash
ENCODING 216
SWIDTH 778 0
DWIDTH 11 0
BBX 11 12 1 0
BITMAP
0060
0F80
3180
6380
62C0
C4C0
C8C0
D880
D180
E100
6200
BC00
ENDCHAR

STARTCHAR Ugrave
ENCODING 217
SWIDTH 815 0
DWIDTH 11 0
BBX 11 14 1 0
BITMAP
0800
0600
0000
F9E0
20C0
6080
6080
6080
4100
C100
C100
C300
C200
7C00
ENDCHAR

STARTCHAR Uacute
ENCODING 218
SWIDTH 815 0
DWIDTH 11 0
BBX 11 14 1 0
BITMAP
0100
0600
0000
F9E0
20C0
6080
6080
6080
4100
C100
C100
C300
C200
7C00
ENDCHAR

STARTCHAR Ucircumflex
ENCODING 219
SWIDTH 815 0
DWIDTH 11 0
BBX 11 14 1 0
BITMAP
0C00
1200
0000
F9E0
20C0
6080
6080
6080
4100
C100
C100
C300
C200
7C00
ENDCHAR

STARTCHAR Udieresis
ENCODING 220
SWIDTH 815 0
DWIDTH 11 0
BBX 11 14 1 0
BITMAP
1B00
1B00
0000
F9E0
20C0
6080
6080
6080
4100
C100
C100
C300
C200
7C00
ENDCHAR

STARTCHAR Yacute
ENCODING 221
SWIDTH 685 0
DWIDTH 10 0
BBX 10 14 0 0
BITMAP
0200
0C00
0000
F3C0
6180
6100
3200
3600
3400
1800
1800
3000
3000
7C00
ENDCHAR

STARTCHAR Thorn
ENCODING 222
SWIDTH 667 0
DWIDTH 9 0
BBX 10 11 0 0
BITMAP
3C00
1800
1F80
18C0
18C0
10C0
3180
3F00
2000
6000
F000
ENDCHAR

STARTCHAR germandbls
ENCODING 223
SWIDTH 556 0
DWIDTH 8 0
BBX 8 14 0 -3
BITMAP
07
09
09
19
16
12
31
21
21
2A
6C
40
40
C0
ENDCHAR

STARTCHAR agrave
ENCODING 224
SWIDTH 574 0
DWIDTH 8 0
BBX 8 10 0 0
BITMAP
10
0C
00
3A
46
84
8C
89
9A
74
ENDCHAR

STARTCHAR aacute
ENCODING 225
SWIDTH 574 0
DWIDTH 8 0
BBX 8 10 0 0
BITMAP
02
0C
00
3A
46
84
8C
89
9A
74
ENDCHAR

STARTCHAR acircumflex
ENCODING 226
SWIDTH 574 0
DWIDTH 8 0
BBX 8 10 0 0
BITMAP
18
24
00
3A
46
84
8C
89
9A
74
ENDCHAR

STARTCHAR atilde
ENCODING 227
SWIDTH 574 0
DWIDTH 8 0
BBX 8 10 0 0
BITMAP
1D
2E
00
3A
46
84
8C
89
9A
74
ENDCHAR

STARTCHAR adieresis
ENCODING 228
SWIDTH 574 0
DWIDTH 8 0
BBX 8 10 0 0
BITMAP
36
36
00
3A
46
84
8C
89
9A
74
ENDCHAR

STARTCHAR aring
ENCODING 229
SWIDTH 574 0
DWIDTH 8 0
BBX 8 12 0 0
BITMAP
04
0A
0A
04
00
3A
46
84
8C
89
9A
74
ENDCHAR

STARTCHAR ae
ENCODING 230
SWIDTH 722 0
DWIDTH 10 0
BBX 10 7 0 0
BITMAP
3B80
64C0
04C0
7F80
C800
8C80
F700
ENDCHAR

STARTCHAR ccedilla
ENCODING 231
SWIDTH 444 0
DWIDTH 6 0
BBX 6 11 0 -4
BITMAP
38
6C
C8
80
80
C8
70
20
20
10
60
ENDCHAR

STARTCHAR egrave
ENCODING 232
SWIDTH 444 0
DWIDTH 6 0
BBX 6 10 0 0
BITMAP
20
18
00
38
4C
C8
F0
80
C8
70
ENDCHAR

STARTCHAR eacute
ENCODING 233
SWIDTH 444 0
DWIDTH 6 0
BBX 6 10 0 0
BITMAP
04
18
00
38
4C
C8
F0
80
C8
70
ENDCHAR

STARTCHAR ecircumflex
ENCODING 234
SWIDTH 444 0
DWIDTH 6 0
BBX 6 10 0 0
BITMAP
18
24
00
38
4C
C8
F0
80
C8
70
ENDCHAR

STARTCHAR edieresis
ENCODING 235
SWIDTH 444 0
DWIDTH 6 0
BBX 6 10 0 0
BITMAP
6C
6C
00
38
4C
C8
F0
80
C8
70
ENDCHAR

STARTCHAR igrave
ENCODING 236
SWIDTH 333 0
DWIDTH 5 0
BBX 4 10 0 0
BITMAP
40
30
00
E0
20
40
40
90
A0
C0
ENDCHAR

STARTCHAR iacute
ENCODING 237
SWIDTH 333 0
DWIDTH 5 0
BBX 5 10 0 0
BITMAP
08
30
00
E0
20
40
40
90
A0
C0
ENDCHAR

STARTCHAR icircumflex
ENCODING 238
SWIDTH 333 0
DWIDTH 5 0
BBX 4 10 0 0
BITMAP
60
90
00
E0
20
40
40
90
A0
C0
ENDCHAR

STARTCHAR idieresis
ENCODING 239
SWIDTH 333 0
DWIDTH 5 0
BBX 5 10 0 0
BITMAP
D8
D8
00
E0
20
40
40
90
A0
C0
ENDCHAR

STARTCHAR eth
ENCODING 240
SWIDTH 500 0
DWIDTH 7 0
BBX 6 11 0 0
BITMAP
24
18
28
0C
3C
64
C4
84
84
88
70
ENDCHAR

STARTCHAR ntilde
ENCODING 241
SWIDTH 611 0
DWIDTH 9 0
BBX 8 10 0 0
BITMAP
1D
2E
00
EC
34
24
64
4D
4A
CC
ENDCHAR

STARTCHAR ograve
ENCODING 242
SWIDTH 500 0
DWIDTH 7 0
BBX 6 10 0 0
BITMAP
20
18
00
38
64
C4
84
84
88
70
ENDCHAR

STARTCHAR oacute
ENCODING 243
SWIDTH 500 0
DWIDTH 7 0
BBX 6 10 0 0
BITMAP
04
18
00
38
64
C4
84
84
88
70
ENDCHAR

STARTCHAR ocircumflex
ENCODING 244
SWIDTH 500 0
DWIDTH 7 0
BBX 6 10 0 0
BITMAP
18
24
00
38
64
C4
84
84
88
70
ENDCHAR

STARTCHAR otilde
ENCODING 245
SWIDTH 500 0
DWIDTH 7 0
BBX 7 10 0 0
BITMAP
3A
5C
00
38
64
C4
84
84
88
70
ENDCHAR

STARTCHAR odieresis
ENCODING 246
SWIDTH 500 0
DWIDTH 7 0
BBX 7 10 0 0
BITMAP
36
36
00
38
64
C4
84
84
88
70
ENDCHAR

STARTCHAR divide
ENCODING 247
SWIDTH 606 0
DWIDTH 8 0
BBX 7 5 1 2
BITMAP
10
00
FE
00
10
ENDCHAR

STARTCHAR oslash
ENCODING 248
SWIDTH 500 0
DWIDTH 7 0
BBX 6 10 0 -1
BITMAP
04
08
38
74
D4
A4
A4
C8
70
80
ENDCHAR

STARTCHAR ugrave
ENCODING 249
SWIDTH 611 0
DWIDTH 9 0
BBX 7 10 1 0
BITMAP
10
0C
00
E6
44
4C
48
8A
9A
EC
ENDCHAR

STARTCHAR uacute
ENCODING 250
SWIDTH 611 0
DWIDTH 9 0
BBX 7 10 1 0
BITMAP
04
18
00
E6
44
4C
48
8A
9A
EC
ENDCHAR

STARTCHAR ucircumflex
ENCODING 251
SWIDTH 611 0
DWIDTH 9 0
BBX 7 10 1 0
BITMAP
18
24
00
E6
44
4C
48
8A
9A
EC
ENDCHAR

STARTCHAR udieresis
ENCODING 252
SWIDTH 611 0
DWIDTH 9 0
BBX 7 10 1 0
BITMAP
36
36
00
E6
44
4C
48
8A
9A
EC
ENDCHAR

STARTCHAR yacute
ENCODING 253
SWIDTH 500 0
DWIDTH 7 0
BBX 7 13 0 -3
BITMAP
02
0C
00
32
72
52
12
1C
0C
08
18
90
E0
ENDCHAR

STARTCHAR thorn
ENCODING 254
SWIDTH 574 0
DWIDTH 8 0
BBX 8 14 0 -3
BITMAP
1C
0C
08
08
1F
19
11
11
31
32
2C
60
40
E0
ENDCHAR

STARTCHAR ydieresis
ENCODING 255
SWIDTH 500 0
DWIDTH 7 0
BBX 8 13 0 -3
BITMAP
1B
1B
00
32
72
52
12
1C
0C
08
18
90
E0
ENDCHAR
ENDFONT
